<?xml version="1.0" encoding="UTF-8" standalone="no"?>
<!--suppress ALL -->
<svg
   xmlns:dc="http://purl.org/dc/elements/1.1/"
   xmlns:cc="http://creativecommons.org/ns#"
   xmlns:rdf="http://www.w3.org/1999/02/22-rdf-syntax-ns#"
   xmlns:svg="http://www.w3.org/2000/svg"
   xmlns="http://www.w3.org/2000/svg"
   xmlns:sodipodi="http://sodipodi.sourceforge.net/DTD/sodipodi-0.dtd"
   xmlns:inkscape="http://www.inkscape.org/namespaces/inkscape"
   height="39.84"
   viewBox="0 0 19.92 19.92"
   width="39.84"
   version="1.1"
   id="svg6"
   sodipodi:docname="share.svg"
   style="fill:#ffffff"
   inkscape:version="0.92.2 (5c3e80d, 2017-08-06)">
  <metadata
     id="metadata12">
    <rdf:RDF>
      <cc:Work
         rdf:about="">
        <dc:format>image/svg+xml</dc:format>
        <dc:type
           rdf:resource="http://purl.org/dc/dcmitype/StillImage" />
        <dc:title></dc:title>
      </cc:Work>
    </rdf:RDF>
  </metadata>
  <defs
     id="defs10" />
  <sodipodi:namedview
     pagecolor="#ffffff"
     bordercolor="#666666"
     borderopacity="1"
     objecttolerance="10"
     gridtolerance="10"
     guidetolerance="10"
     inkscape:pageopacity="0"
     inkscape:pageshadow="2"
     inkscape:window-width="1920"
     inkscape:window-height="1017"
     id="namedview8"
     showgrid="false"
     inkscape:zoom="4.9166667"
     inkscape:cx="18"
     inkscape:cy="19.84"
     inkscape:window-x="-8"
     inkscape:window-y="-8"
     inkscape:window-maximized="1"
     inkscape:current-layer="svg6" />
  <path
     d="M -3,-2.0000002 H 21 V 22 H -3 Z"
     id="path2"
     inkscape:connector-curvature="0"
     style="fill:none" />
  <path
     d="m 15.96,14.08 c -0.76,0 -1.44,0.3 -1.96,0.77 L 6.87,10.7 c 0.05,-0.23 0.09,-0.46 0.09,-0.7000002 0,-0.24 -0.04,-0.47 -0.09,-0.7 l 7.05,-4.11 c 0.54,0.5 1.25,0.81 2.04,0.81 1.66,0 3,-1.34 3,-3 0,-1.66 -1.34,-2.99999995258789 -3,-2.99999995258789 -1.66,0 -3,1.33999995258789 -3,2.99999995258789 0,0.24 0.04,0.47 0.09,0.7 l -7.05,4.11 c -0.54,-0.5 -1.25,-0.81 -2.04,-0.81 -1.66,0 -3,1.34 -3,3 C 0.96,11.66 2.3,13 3.96,13 4.75,13 5.46,12.69 6,12.19 l 7.12,4.16 c -0.05,0.21 -0.08,0.43 -0.08,0.65 0,1.61 1.31,2.92 2.92,2.92 1.61,0 2.92,-1.31 2.92,-2.92 0,-1.61 -1.31,-2.92 -2.92,-2.92 z m 0,-12.0800002 c 0.55,0 1,0.45 1,1 0,0.55 -0.45,1 -1,1 -0.55,0 -1,-0.45 -1,-1 0,-0.55 0.45,-1 1,-1 z M 3.96,11 c -0.55,0 -1,-0.45 -1,-1.0000002 0,-0.55 0.45,-1 1,-1 0.55,0 1,0.45 1,1 C 4.96,10.55 4.51,11 3.96,11 Z m 12,7.02 c -0.55,0 -1,-0.45 -1,-1 0,-0.55 0.45,-1 1,-1 0.55,0 1,0.45 1,1 0,0.55 -0.45,1 -1,1 z"
     id="path4"
     inkscape:connector-curvature="0" />
</svg>
